<svg xmlns="http://www.w3.org/2000/svg" width="329" height="50" viewBox="0 0 329 50" fill="none"><g clip-path="url(#clip0_278_6273)"><path d="M173.952 49.3131C176.546 32.887 179.158 16.4609 181.77 0.0175781H192.062C191.048 6.4437 190.034 12.8526 189.02 19.2616C190.825 17.9385 192.732 16.6842 194.897 15.997C196.976 15.3269 199.227 15.155 201.409 15.3784C203.041 15.5502 204.742 16.0657 205.962 17.2341C207.096 18.2994 207.663 19.8286 207.869 21.3234C208.161 23.454 207.921 25.5846 207.577 27.6808C206.443 34.8973 205.292 42.0966 204.141 49.3131H193.797C194.845 42.6293 195.893 35.9626 196.941 29.2787C197.113 28.1104 197.388 26.9592 197.405 25.7736C197.405 24.9832 197.199 24.0554 196.477 23.6258C195.67 23.1619 194.708 23.2822 193.831 23.3165C191.649 23.454 189.519 24.4162 188.024 25.9798C186.752 33.7461 185.55 41.5296 184.313 49.3131H173.952ZM260.996 3.60864C264.398 2.47462 268.041 2.76672 271.563 2.9729C275.704 3.28218 279.845 3.67737 283.917 4.39902C283.694 5.92823 283.453 7.47462 283.213 9.00383C277.697 8.88356 272.182 8.57428 266.666 8.40246C265.275 8.38528 263.814 8.47119 262.543 9.08974C261.512 9.57084 260.739 10.4815 260.275 11.4952C259.519 13.1275 259.398 14.9488 259.106 16.7014C258.866 18.3853 258.453 20.155 258.935 21.8389C259.192 22.8011 260.069 23.4712 261.031 23.6258C262.611 23.8836 264.209 23.7461 265.807 23.7805H272.68C274.691 23.8148 276.787 24.2959 278.35 25.6361C279.673 26.753 280.464 28.4025 280.773 30.0863C281.151 32.0623 280.945 34.0897 280.618 36.0657C280.292 38.076 280.172 40.1379 279.536 42.0966C278.78 44.5537 277.13 46.7873 274.862 48.0416C272.233 49.5537 269.141 49.7942 266.203 50.0004H264.88C259.811 49.6739 254.708 49.3818 249.725 48.2994C249.965 46.753 250.189 45.1894 250.429 43.6258C255.653 44.1585 260.91 44.2444 266.151 44.2616C268.23 44.2616 270.412 43.9866 272.148 42.7667C273.385 41.9076 274.124 40.4987 274.33 39.0382C274.587 37.3028 274.931 35.5846 275.12 33.8492C275.206 32.7495 275.189 31.4609 274.364 30.619C273.522 29.777 272.251 29.6396 271.117 29.6052C268.368 29.588 265.618 29.6052 262.886 29.6052C260.361 29.6052 257.68 29.2616 255.601 27.7324C254.261 26.7702 253.385 25.2753 253.041 23.6946C252.594 21.753 252.766 19.7598 253.075 17.8183C253.574 14.6911 253.797 11.4093 255.309 8.5571C256.443 6.23751 258.522 4.4162 260.996 3.60864ZM51.0651 3.12754C53.6424 3.09318 56.2026 3.12754 58.7627 3.11036C59.2266 3.11036 59.7764 3.076 60.1201 3.47119C60.4809 3.88356 60.4122 4.46775 60.3435 4.96603C59.9998 7.07943 59.7077 9.21002 59.3469 11.3062C59.2266 12.0623 58.4878 12.5777 57.749 12.5434C55.2232 12.5605 52.6974 12.5434 50.1544 12.5434C49.7421 12.5434 49.261 12.5434 48.9345 12.2341C48.5737 11.9248 48.5221 11.4265 48.5909 10.997C48.9345 8.84919 49.2438 6.68424 49.5874 4.53648C49.6905 3.79765 50.3263 3.17909 51.0651 3.12754ZM216.993 3.17909C218.952 3.17909 220.91 3.19627 222.869 3.17909C221.666 11.0485 220.395 18.9007 219.158 26.7702C218.728 29.6396 218.161 32.4918 218.093 35.3956C218.075 37.0966 218.178 38.8492 218.849 40.4471C219.347 41.6671 220.292 42.698 221.495 43.2822C223.179 44.0897 225.12 44.2272 226.976 44.2272C229.639 44.2444 232.44 43.8148 234.639 42.2169C236.752 40.7049 238.024 38.3165 238.831 35.8939C240 32.4059 240.326 28.7289 240.945 25.1379C242.113 17.8183 243.264 10.4987 244.416 3.17909H250.326C248.986 11.8904 247.646 20.6018 246.288 29.3131C245.79 32.7152 245.137 36.1516 243.814 39.3647C242.766 41.9592 241.185 44.4162 238.969 46.186C236.546 48.1619 233.488 49.21 230.429 49.6224C228.935 49.7942 227.44 49.9832 225.945 49.966C222.904 49.777 219.708 49.399 217.113 47.6808C214.897 46.2547 213.436 43.8664 212.8 41.3406C211.873 37.6464 212.148 33.7976 212.715 30.0691C214.141 21.1172 215.567 12.1482 216.993 3.17909ZM7.4225 3.24782H31.4431C34.3297 3.28218 37.4053 3.9351 39.6218 5.89387C41.6665 7.68081 42.6115 10.4128 42.7318 13.0588C42.852 16.0485 42.3538 19.1928 40.584 21.6671C39.2266 23.6602 37.0445 25.0691 34.6562 25.4299C36.7524 25.8767 38.4362 27.4746 39.3125 29.3818C40.6699 32.2169 40.6356 35.4815 40.0342 38.5056C39.4843 41.3406 38.5393 44.2959 36.3572 46.3234C34.9311 47.6636 33.0411 48.4196 31.1338 48.8148C28.4191 49.3818 25.6184 49.3818 22.8349 49.3818H0.0341797C1.54621 39.9145 3.05823 30.4471 4.58744 20.9798H27.663C28.883 20.997 30.1201 20.5159 30.9448 19.588C31.907 18.5227 32.2507 17.0451 32.3194 15.619C32.3538 14.7083 32.1819 13.6774 31.4947 13.0073C30.8589 12.3715 29.9139 12.1825 29.0376 12.1825H5.99638C6.47748 9.19284 6.95858 6.22033 7.4225 3.24782ZM12.096 29.4506C11.5118 33.1104 10.9448 36.7702 10.3606 40.4471H25.0857C26.2713 40.4299 27.4912 40.0176 28.2988 39.1241C29.4156 37.9385 29.828 36.2891 30.0514 34.7083C30.2232 33.3681 30.2232 31.8732 29.4328 30.7049C28.8314 29.7942 27.6802 29.4334 26.6321 29.4506H12.096ZM88.2816 12.6121C88.7971 9.46775 89.2953 6.3406 89.8108 3.19627H124.656C124.158 6.3406 123.642 9.46775 123.144 12.6121H110.704C108.78 24.8458 106.838 37.0794 104.914 49.3131H94.5531C96.4775 37.0794 98.4191 24.8458 100.343 12.6121H88.2816ZM300.498 12.0107C302.027 9.07256 303.522 6.10005 305.103 3.16191C307.148 3.19627 309.192 3.17909 311.254 3.17909L319.862 49.5708C317.869 49.5708 315.876 49.588 313.883 49.5537C313.144 45.4815 312.371 41.4265 311.598 37.3715H293.831C291.718 41.4437 289.605 45.4987 287.491 49.5708H281.048C287.526 37.0451 294.02 24.5365 300.498 12.0107ZM296.632 31.7873H310.721C309.519 24.8973 308.316 18.0245 307.113 11.1344C303.625 18.0245 300.12 24.8973 296.632 31.7873ZM317.8 3.17909H322.302C322.302 3.33373 322.285 3.64301 322.285 3.79765H320.361V9.2272C320.189 9.2272 319.845 9.2272 319.673 9.24438V3.79765H317.8V3.17909ZM322.749 9.24438C322.886 7.21689 323.024 5.20658 323.161 3.17909H324.089C324.656 4.82857 325.189 6.49524 325.79 8.12754C326.357 6.47806 326.873 4.82857 327.44 3.17909H328.333C328.505 5.1894 328.677 7.21689 328.831 9.24438C328.66 9.24438 328.333 9.2272 328.161 9.2272C328.024 7.61208 327.904 5.99696 327.766 4.36466C327.216 5.99696 326.684 7.61208 326.134 9.24438H325.447C324.88 7.61208 324.33 5.97978 323.763 4.36466C323.66 5.97978 323.539 7.61208 323.419 9.2272C323.247 9.2272 322.921 9.24438 322.749 9.24438Z" fill="#4C4C4C"></path><path d="M126.993 15.1028C130.412 14.8451 133.952 14.8451 137.285 15.8073C139.467 16.4602 141.632 17.7317 142.732 19.8108C143.952 21.9929 143.832 24.6046 143.454 26.9929C142.99 29.7764 141.649 32.474 139.416 34.2437C136.701 36.4259 133.127 37.1991 129.725 37.285C127.423 37.3022 125.086 37.096 122.869 36.4431C122.715 37.663 122.491 39.0719 123.23 40.1716C124.055 41.2541 125.567 41.34 126.821 41.4259C131.529 41.5805 136.237 41.0994 140.876 40.3434C140.464 42.7833 140.034 45.2231 139.622 47.6802C133.677 49.5874 127.337 49.9998 121.134 49.4671C118.832 49.2781 116.512 48.3331 115 46.529C113.179 44.3984 112.543 41.5462 112.371 38.8314C112.13 34.6561 112.801 30.498 113.78 26.4602C114.536 23.4534 115.653 20.3262 118.041 18.23C120.498 16.065 123.831 15.3778 126.993 15.1028ZM125.533 24.5015C124.313 25.9448 124.055 27.9035 123.728 29.6905C125.859 30.0341 128.11 30.1716 130.172 29.4671C131.443 29.0376 132.577 28.0754 132.938 26.7523C133.196 25.8073 133.35 24.6561 132.68 23.8314C132.045 23.1097 130.979 23.0066 130.069 22.9551C128.453 22.8692 126.632 23.1956 125.533 24.5015ZM153.247 16.4946C156.048 15.0513 159.313 15.2231 162.371 15.3606C166.615 15.6355 170.893 16.065 174.931 17.4224C174.622 19.5015 174.295 21.5805 173.969 23.6767C170.326 23.4018 166.701 23.2644 163.058 23.2644C161.89 23.2815 160.653 23.2815 159.622 23.8657C158.539 24.4671 157.938 25.6183 157.508 26.7352C156.787 28.6596 156.426 30.6699 156.065 32.6802C155.79 34.4843 155.498 36.3056 155.584 38.1441C155.653 39.175 155.876 40.3434 156.787 40.9791C157.749 41.6492 159.003 41.6492 160.137 41.6836C163.986 41.6836 167.835 41.4774 171.667 41.1338C171.34 43.2128 171.014 45.2919 170.67 47.3709C169.605 47.9207 168.419 48.23 167.268 48.5565C163.66 49.5358 159.897 49.6561 156.185 49.6733C154.484 49.6561 152.715 49.7592 151.082 49.1063C148.814 48.2815 147.13 46.2884 146.306 44.0719C145.034 40.7042 145.086 37.0273 145.447 33.5221C145.876 29.931 146.563 26.3571 147.904 22.9894C148.969 20.3606 150.653 17.8004 153.247 16.4946ZM74.1408 15.6011C77.3538 15.3434 80.6184 15.2059 83.7628 15.9104C86.1683 16.4259 88.505 17.6458 89.9312 19.6905C91.6322 22.1475 91.993 25.2575 91.993 28.1785C91.9071 31.8039 91.3573 35.4293 90.4466 38.9345C89.6219 41.9757 88.2645 45.0857 85.6356 46.9929C82.8006 49.0204 79.1923 49.4328 75.8074 49.5874C72.1477 49.7248 68.2645 49.6905 64.9483 47.9207C62.7318 46.7695 61.1683 44.5702 60.5497 42.1647C59.7593 39.1407 59.9483 35.962 60.3435 32.9035C60.8418 29.5702 61.4604 26.2197 62.8178 23.1269C63.7456 20.9791 65.1889 18.9688 67.1992 17.7145C69.2611 16.3743 71.7353 15.8417 74.1408 15.6011ZM75.7044 23.5049C74.9655 23.608 74.2267 23.8486 73.6425 24.3468C72.5772 25.2747 72.182 26.7008 71.8212 28.0238C71.2198 30.5668 70.8074 33.1441 70.481 35.7386C70.3435 37.2334 70.1202 38.8314 70.7559 40.2575C71.2714 41.3571 72.6287 41.5977 73.7284 41.6321C75.0858 41.6321 76.5119 41.7523 77.8006 41.2197C78.9346 40.7386 79.5188 39.553 79.8796 38.4362C80.5497 36.3743 80.8762 34.2266 81.2198 32.0788C81.4947 30.1029 81.8384 28.1097 81.6494 26.1166C81.5635 25.12 81.048 24.0719 80.0514 23.7455C78.6597 23.2644 77.1477 23.3503 75.7044 23.5049ZM48.0411 15.8589C51.4947 15.8589 54.9312 15.8417 58.3848 15.8589C56.6322 27.0101 54.8624 38.1613 53.0927 49.3125H42.749C44.5016 38.1613 46.2714 27.0101 48.0411 15.8589Z" fill="#4C4C4C"></path></g><defs><clipPath id="clip0_278_6273"><rect width="328.866" height="50" fill="white"></rect></clipPath></defs></svg>