<svg xmlns="http://www.w3.org/2000/svg" width="151" height="101" viewBox="0 0 151 101" fill="none"><path d="M128.796 44.628C128.796 51.1389 126.075 57.3337 121.204 61.6954C120.887 62.0114 120.381 61.9482 120.065 61.6954C118.293 60.1151 116.142 58.598 113.928 57.7762C112.536 57.2705 110.322 56.8912 110.322 54.9949C110.322 54.6156 110.448 54.2363 110.638 53.857C110.638 53.7938 110.701 53.7938 110.701 53.7306C112.536 51.0757 113.738 47.9783 114.244 44.8177C114.371 43.9959 114.434 43.1109 114.497 42.2892C114.244 37.6114 110.385 33.9451 105.703 33.9451C101.021 33.9451 97.1622 37.6114 96.9091 42.2892C96.9091 43.1109 97.0357 43.9959 97.1622 44.8177C97.6683 48.0415 98.8704 51.0757 100.705 53.7306C100.705 53.7938 100.768 53.7938 100.768 53.857C100.958 54.1731 101.085 54.5524 101.085 54.9949C101.085 56.8912 99.0602 57.0809 97.6683 57.6498C97.4153 57.7762 97.2255 57.9658 97.1622 58.2187C97.0989 58.4715 97.1622 58.7244 97.352 58.914C97.9214 59.5462 98.4275 60.1783 98.9337 60.8104C100.452 62.77 101.781 64.9192 102.856 67.1949V67.2581C102.856 67.3213 102.92 67.3213 102.92 67.3845C102.92 67.3845 102.92 67.4477 102.92 67.5109C102.92 67.5741 102.92 67.6373 102.92 67.7006C102.92 68.0798 102.666 68.3959 102.287 68.4591C102.224 68.4591 102.16 68.4591 102.16 68.4591C101.971 68.4591 101.717 68.3959 101.591 68.2063C96.8459 63.2125 91.5947 59.2933 84.8884 57.3337C84.6986 57.2705 84.572 57.2073 84.4455 57.1441C84.3822 57.0809 84.2557 57.0177 84.1924 56.9544C82.6108 55.943 82.3577 53.9835 83.2434 52.4032C84.4455 50.1275 85.9007 48.0415 86.9129 45.6394C89.4436 39.4446 91.0253 31.7959 86.7864 25.9171C84.1292 22.1876 79.827 20.0384 75.2085 20.0384C70.6533 20.0384 66.3511 22.2508 63.6306 25.9171C59.3917 31.7327 60.9734 39.4446 63.5041 45.6394C64.5164 48.0415 65.9715 50.1275 67.1736 52.4032C67.9961 53.9835 67.743 55.943 66.2246 56.9544C66.1613 57.0177 66.0348 57.0809 65.9715 57.1441C65.845 57.2073 65.6552 57.2705 65.5286 57.3337C58.8223 59.2933 53.5711 63.2125 48.8261 68.2063C48.6996 68.3327 48.4465 68.4591 48.2567 68.4591C48.1934 68.4591 48.1302 68.4591 48.1302 68.4591C47.7506 68.3959 47.4975 68.0798 47.4975 67.7006C47.4975 67.6373 47.4975 67.5741 47.4975 67.5109C47.4975 67.4477 47.4975 67.4477 47.4975 67.3845C47.4975 67.3213 47.5608 67.2581 47.5608 67.2581V67.1949C48.6363 64.9192 49.9649 62.77 51.4833 60.8104C51.9895 60.1783 52.4956 59.4829 53.065 58.914C53.2548 58.7244 53.3181 58.4715 53.2548 58.2187C53.1915 57.9658 53.0017 57.7762 52.7487 57.6498C51.4201 57.0809 49.3322 56.828 49.3322 54.9949C49.3322 54.6156 49.4588 54.2363 49.6486 53.857C49.6486 53.7938 49.7118 53.7938 49.7118 53.7306C51.5466 51.0757 52.7487 47.9783 53.2548 44.8177C53.3813 43.9959 53.4446 43.1109 53.5079 42.2892C53.2548 37.6114 49.3955 33.9451 44.7137 33.9451C40.032 33.9451 36.1727 37.6114 35.9196 42.2892C35.9196 43.1109 36.0461 43.9959 36.1727 44.8177C36.6788 48.0415 37.8809 51.0757 39.7156 53.7306C39.7156 53.7938 39.7789 53.7938 39.7789 53.857C39.9687 54.1731 40.0952 54.5524 40.0952 54.9949C40.0952 56.8912 37.8176 57.2705 36.489 57.7762C34.2114 58.6612 32.1236 60.1151 30.3521 61.6954C30.0358 62.0114 29.5296 62.0114 29.2133 61.6954C22.4437 55.5638 19.9763 46.0819 22.8233 37.4218C25.6703 28.7617 33.3257 22.5669 42.3729 21.6819C42.6892 21.6187 42.9423 21.4922 43.0055 21.1762C48.573 8.34405 61.2265 0 75.2085 0C89.1905 0 101.844 8.34405 107.411 21.1762C107.538 21.429 107.791 21.6187 108.044 21.6819C119.812 22.8829 128.796 32.8073 128.796 44.628Z" fill="#4C4C4C"></path><path d="M11.2165 80.836C11.2165 82.1124 10.9844 83.2727 10.559 84.2783C9.70805 84.2009 8.77979 84.1236 8.2383 84.1236C7.3874 84.1236 6.14972 84.2783 5.37617 84.6651C4.48659 85.0905 3.86775 85.8641 3.86775 87.5659V99.5559C2.7461 100.097 1.46974 100.291 0 100.291V85.8254C0 83.5434 0.889584 82.3444 2.93949 81.4935C4.52527 80.836 6.57517 80.5266 8.16094 80.5266C9.20523 80.4879 10.2495 80.6039 11.2165 80.836ZM22.781 100.252C16.3606 100.252 12.4155 96.2296 12.4155 90.3893C12.4155 84.549 16.2832 80.5266 22.2396 80.5266C27.2676 80.5266 30.9033 83.4274 30.9033 88.1847C30.9033 90.9695 29.6269 91.8204 26.6875 91.8204H16.3606C16.9021 94.992 19.3774 96.7711 22.9744 96.7711C24.7536 96.7711 26.6101 96.3457 27.9251 95.9202C28.3893 96.8872 28.5827 98.0088 28.5827 99.2852C26.6875 99.904 24.7536 100.213 22.781 100.252ZM25.4885 88.7262C26.7648 88.7262 27.1129 88.1847 27.1129 87.3725C27.1129 85.2066 24.7923 83.8915 22.2009 83.8915C19.2614 83.8915 16.9407 85.632 16.3606 88.7649H25.4885V88.7262ZM33.3787 90.3893C33.3787 84.5877 37.3238 80.5266 43.7442 80.5266C45.6781 80.5266 47.5733 80.8747 49.3525 81.4935C49.3525 82.7699 49.1591 83.8528 48.6949 84.8198C47.1865 84.317 45.5621 84.0462 43.9763 84.0076C39.8378 84.0076 37.2464 86.5216 37.2464 90.3893C37.2464 94.2571 39.8378 96.6938 43.8989 96.6938C45.6394 96.6938 47.5346 96.2683 48.811 95.8042C49.2364 96.8098 49.4685 97.9315 49.4685 99.2465C47.612 99.904 45.6781 100.252 43.7442 100.252C37.3238 100.252 33.3787 96.191 33.3787 90.3893ZM64.514 80.836C64.514 82.1124 64.282 83.2727 63.8565 84.2783C63.0056 84.2009 62.0773 84.1236 61.5359 84.1236C60.6463 84.1236 59.4473 84.2783 58.6737 84.6651C57.7841 85.0905 57.1653 85.8641 57.1653 87.5659V99.5559C56.0437 100.097 54.7673 100.291 53.2976 100.291V85.8254C53.2976 83.5434 54.1871 82.3444 56.237 81.4935C57.8228 80.836 59.8727 80.5266 61.4585 80.5266C62.5028 80.4879 63.5084 80.6039 64.514 80.836ZM71.1279 91.4336C71.1279 94.4118 72.7523 96.6938 75.8079 96.6938C76.3107 96.6938 77.5483 96.6164 78.5926 96.2296C79.6756 95.8042 80.0624 95.108 80.0624 94.0637V81.2615C81.184 80.72 82.4604 80.5266 83.9301 80.5266V94.992C83.9301 97.2739 83.0019 98.5116 80.9906 99.3238C79.4049 99.9427 77.1229 100.291 75.4597 100.291C70.393 100.291 67.2601 96.9645 67.2601 91.8204V81.3001C68.3818 80.7587 69.6581 80.5653 71.1279 80.5653C71.1279 80.4879 71.1279 91.4336 71.1279 91.4336ZM93.5608 74.7636C93.5608 76.156 92.4392 77.3164 91.0081 77.3164C89.6157 77.3164 88.4554 76.1947 88.4554 74.7636C88.4554 73.3713 89.577 72.2109 91.0081 72.2109C91.6656 72.2109 92.3231 72.4817 92.7873 72.9458C93.2901 73.4486 93.5608 74.1061 93.5608 74.7636ZM92.942 99.4786C91.8203 100.02 90.544 100.213 89.0742 100.213V81.2228C90.1959 80.6813 91.4722 80.4879 92.942 80.4879V99.4786ZM103.385 84.3943V93.5222C103.385 96.2296 105.203 96.6938 108.529 96.6938C108.529 98.0088 108.336 99.1304 107.871 100.097C107.407 100.213 106.943 100.252 106.479 100.252C104.468 100.252 101.412 99.788 100.175 97.0805C99.6332 95.8815 99.5558 94.4892 99.5558 92.9807V84.433H96.1522C96.1522 83.0793 96.3456 81.919 96.8484 80.9134H99.5945V75.5372C100.716 74.9957 101.992 74.8023 103.462 74.8023V80.952H108.722C108.722 82.2671 108.529 83.4661 108.026 84.4717L103.385 84.3943ZM121.138 100.252C114.717 100.252 110.772 96.2296 110.772 90.3893C110.772 84.549 114.64 80.5266 120.596 80.5266C125.624 80.5266 129.26 83.4274 129.26 88.1847C129.26 90.9695 127.984 91.8204 125.044 91.8204H114.717C115.259 94.992 117.734 96.7711 121.331 96.7711C123.11 96.7711 124.967 96.3457 126.282 95.9202C126.746 96.8872 126.939 98.0088 126.939 99.2852C125.044 99.904 123.072 100.213 121.138 100.252ZM123.845 88.7262C125.122 88.7262 125.47 88.1847 125.47 87.3725C125.47 85.2066 123.149 83.8915 120.558 83.8915C117.618 83.8915 115.298 85.632 114.717 88.7649H123.845V88.7262ZM142.101 100.252C135.681 100.252 131.735 96.2296 131.735 90.3893C131.735 84.549 135.603 80.5266 141.56 80.5266C146.588 80.5266 150.223 83.4274 150.223 88.1847C150.223 90.9695 148.947 91.8204 146.007 91.8204H135.681C136.222 94.992 138.697 96.7711 142.294 96.7711C144.074 96.7711 145.93 96.3457 147.245 95.9202C147.709 96.8872 147.903 98.0088 147.903 99.2852C146.007 99.904 144.074 100.213 142.101 100.252ZM144.847 88.7262C146.123 88.7262 146.472 88.1847 146.472 87.3725C146.472 85.2066 144.151 83.8915 141.56 83.8915C138.62 83.8915 136.299 85.632 135.719 88.7649H144.847V88.7262Z" fill="#4C4C4C"></path></svg>