<svg xmlns="http://www.w3.org/2000/svg" width="349" height="86" viewBox="0 0 349 86" fill="none"><path d="M56.9685 20.7677L43.3261 34.4101C40.7132 37.0229 37.1693 38.4908 33.4716 38.4908H0L37.3495 1.14124C38.0816 0.409189 39.0727 0 40.1088 0H55.0501C56.7432 0 58.1172 1.37399 58.1172 3.06709V18.0084C58.1172 19.0446 57.7043 20.0356 56.976 20.7677H56.9685Z" fill="#4C4C4C"></path><path d="M33.0846 85.238V68.6824C33.0846 66.9893 31.7106 65.6153 30.0175 65.6153H13.4619L34.6313 44.4459C37.2441 41.8331 40.788 40.3652 44.4858 40.3652H77.9574L33.0846 85.238Z" fill="#4C4C4C"></path><path d="M290.186 28.4922H283.173V54.602H290.186V28.4922Z" fill="#4C4C4C"></path><path d="M120.089 35.7987C118.621 35.0667 116.692 34.3046 114.304 33.52C112.701 33.0432 111.436 32.6002 110.516 32.1873C109.596 31.7781 108.834 31.2563 108.237 30.6256C107.64 29.9949 107.34 29.2178 107.34 28.298C107.34 27.581 107.535 26.9428 107.93 26.3797C108.32 25.8166 108.883 25.3886 109.619 25.0995C110.351 24.8105 111.214 24.6641 112.205 24.6641C113.399 24.6641 114.364 24.8593 115.096 25.2535C115.828 25.6476 116.391 26.1995 116.785 26.9165C117.176 27.6335 117.39 28.4182 117.424 29.2703H124.898C124.864 26.9841 124.267 24.9944 123.107 23.3051C121.947 21.6157 120.412 20.3356 118.501 19.4646C116.59 18.5937 114.525 18.1582 112.307 18.1582C109.919 18.1582 107.768 18.5862 105.857 19.4384C103.946 20.2905 102.46 21.4768 101.405 22.9972C100.346 24.5176 99.8169 26.2295 99.8169 28.1441C99.8169 30.4979 100.354 32.42 101.427 33.9029C102.501 35.3858 103.781 36.497 105.268 37.229C106.751 37.9648 108.673 38.7232 111.027 39.5078C112.663 40.0559 113.936 40.5139 114.841 40.8893C115.746 41.2647 116.504 41.7677 117.12 42.3984C117.735 43.0291 118.039 43.825 118.039 44.7785C118.039 45.5969 117.825 46.3065 117.401 46.9034C116.973 47.5003 116.342 47.9545 115.505 48.2586C114.668 48.5664 113.636 48.7203 112.408 48.7203C111.181 48.7203 110.114 48.5139 109.21 48.1047C108.305 47.6955 107.629 47.0911 107.186 46.2877C106.743 45.4881 106.488 44.5232 106.417 43.397H98.8896C98.9234 45.7846 99.5128 47.8757 100.654 49.6701C101.795 51.4608 103.391 52.8348 105.441 53.7921C107.487 54.7457 109.844 55.2262 112.506 55.2262C115.167 55.2262 117.427 54.7719 119.391 53.871C121.354 52.9662 122.863 51.7311 123.922 50.1582C124.981 48.5889 125.51 46.8658 125.51 44.9888C125.51 42.5674 124.973 40.6115 123.899 39.1286C122.826 37.6457 121.553 36.5345 120.085 35.8025L120.089 35.7987Z" fill="#4C4C4C"></path><path d="M136.727 39.5483H150.599V32.7909H136.727V25.523H151.109V18.7656H129.302V54.5985H151.624V47.8411H136.727V39.5483Z" fill="#4C4C4C"></path><path d="M188.125 40.4699C190.137 39.4788 191.684 38.1161 192.757 36.3742C193.831 34.6323 194.372 32.6388 194.372 30.3826C194.372 28.1264 193.835 26.0804 192.757 24.3423C191.684 22.6004 190.137 21.2376 188.125 20.2465C186.113 19.2555 183.703 18.7637 180.906 18.7637H168.772V54.5966H176.194V41.9528H179.201L189.604 54.5966H198.715L187.336 40.819C187.603 40.7101 187.866 40.5938 188.121 40.4661L188.125 40.4699ZM176.194 25.5211H180.801C182.096 25.5211 183.196 25.735 184.1 26.1593C185.005 26.5872 185.677 27.1653 186.124 27.9012C186.567 28.637 186.792 29.4629 186.792 30.3826C186.792 31.3024 186.571 32.0907 186.124 32.8378C185.681 33.5886 185.005 34.1705 184.1 34.5797C183.196 34.9889 182.096 35.1954 180.801 35.1954H176.194V25.5211Z" fill="#4C4C4C"></path><path d="M217.713 31.1397C217.243 30.6404 216.752 30.205 216.23 29.8371C215.31 29.1876 214.285 28.7033 213.159 28.3767C212.033 28.0539 210.753 27.8887 209.318 27.8887C207.1 27.8887 204.982 28.4706 202.97 29.6306C200.958 30.7906 199.329 32.4124 198.082 34.4959C196.836 36.5794 196.213 38.9332 196.213 41.5611C196.213 44.189 196.836 46.5466 198.082 48.6263C199.329 50.7099 200.958 52.3279 202.97 53.4916C204.982 54.6517 207.1 55.2336 209.318 55.2336C211.537 55.2336 213.294 54.8656 214.796 54.1336C215.862 53.6118 216.834 52.8797 217.713 51.9337V54.6216H224.417V28.5119H217.713V31.1472V31.1397ZM216.74 45.2476C216.125 46.3401 215.261 47.1998 214.154 47.8342C213.046 48.4649 211.826 48.7803 210.493 48.7803C209.161 48.7803 207.892 48.4649 206.781 47.8342C205.669 47.2035 204.799 46.3401 204.172 45.2476C203.541 44.1552 203.222 42.9276 203.222 41.5611C203.222 40.1946 203.537 39.0121 204.172 37.9009C204.802 36.7896 205.673 35.9224 206.781 35.2918C207.892 34.6611 209.127 34.3457 210.493 34.3457C211.86 34.3457 213.043 34.6611 214.154 35.2918C215.261 35.9224 216.125 36.7934 216.74 37.9009C217.356 39.0121 217.66 40.2284 217.66 41.5611C217.66 42.8938 217.352 44.1552 216.74 45.2476Z" fill="#4C4C4C"></path><path d="M248.098 29.349C246.495 28.3767 244.652 27.8887 242.568 27.8887C241.371 27.8887 240.256 28.0614 239.216 28.3992C238.176 28.7409 237.192 29.2364 236.273 29.8821C235.77 30.235 235.293 30.6479 234.839 31.1172V28.5006H228.134V54.6104H235.146V40.4311C235.146 39.2373 235.383 38.1787 235.863 37.2589C236.34 36.3392 237.024 35.6221 237.909 35.1078C238.799 34.5973 239.768 34.3382 240.826 34.3382C241.953 34.3382 242.925 34.586 243.743 35.0815C244.562 35.5771 245.177 36.2828 245.587 37.2064C245.996 38.1261 246.202 39.2035 246.202 40.4311V54.6104H253.215V39.0984C253.215 36.9849 252.761 35.074 251.86 33.3659C250.955 31.6616 249.701 30.3213 248.098 29.349Z" fill="#4C4C4C"></path><path d="M281.484 28.4999H273.394L263.975 39.4469V17.752H256.962V54.6097H263.975V43.2273L273.904 54.6097H282.298L270.281 41.14L281.48 28.4999H281.484Z" fill="#4C4C4C"></path><path d="M313.942 29.349C312.335 28.3767 310.492 27.8887 308.416 27.8887C307.218 27.8887 306.103 28.0614 305.064 28.3992C304.024 28.7409 303.04 29.2364 302.12 29.8821C301.617 30.235 301.137 30.6479 300.686 31.1172V28.5006H293.981V54.6104H300.994V40.4311C300.994 39.2373 301.231 38.1787 301.711 37.2589C302.188 36.3392 302.871 35.6221 303.757 35.1078C304.643 34.5973 305.619 34.3382 306.678 34.3382C307.8 34.3382 308.776 34.586 309.595 35.0815C310.413 35.5771 311.029 36.2828 311.438 37.2064C311.847 38.1261 312.054 39.2035 312.054 40.4311V54.6104H319.066V39.0984C319.066 36.9849 318.612 35.074 317.711 33.3659C316.806 31.6616 315.553 30.3213 313.95 29.349H313.942Z" fill="#4C4C4C"></path><path d="M342.299 28.5045V31.1699C341.833 30.6781 341.338 30.2389 340.816 29.8635C339.893 29.1953 338.879 28.7035 337.768 28.3806C336.66 28.0578 335.391 27.8926 333.954 27.8926C331.769 27.8926 329.711 28.4294 327.786 29.5068C325.856 30.5805 324.294 32.1084 323.104 34.0906C321.907 36.0728 321.313 38.3553 321.313 40.9493C321.313 43.5434 321.918 45.8372 323.13 47.8344C324.343 49.8315 325.912 51.367 327.838 52.4406C329.768 53.5143 331.821 54.0511 334.006 54.0511C336.022 54.0511 337.786 53.6945 339.303 52.9775C340.362 52.4782 341.255 51.8513 341.991 51.1004V53.0788C341.991 54.3402 341.732 55.4852 341.221 56.5101C340.711 57.535 339.949 58.3346 338.943 58.9165C337.933 59.4946 336.717 59.7874 335.282 59.7874C334.19 59.7874 333.263 59.6335 332.493 59.3257C331.724 59.0178 331.067 58.6162 330.522 58.1244C329.974 57.6288 329.512 57.0056 329.137 56.2548H321.97C322.413 58.1656 323.206 59.87 324.351 61.3754C325.492 62.877 326.986 64.0521 328.829 64.908C330.672 65.7602 332.824 66.1882 335.279 66.1882C338.282 66.1882 340.816 65.5725 342.881 64.3449C344.946 63.1173 346.481 61.4542 347.487 59.3557C348.493 57.2572 349 54.8921 349 52.268V28.5158H342.291L342.299 28.5045ZM341.353 44.5007C340.756 45.5406 339.926 46.3628 338.871 46.9559C337.813 47.5528 336.619 47.8531 335.286 47.8531C333.954 47.8531 332.711 47.5566 331.652 46.9559C330.597 46.359 329.775 45.5406 329.197 44.5007C328.615 43.4608 328.326 42.2745 328.326 40.9418C328.326 39.6805 328.615 38.5092 329.197 37.4355C329.775 36.3618 330.597 35.5247 331.652 34.9278C332.711 34.3309 333.923 34.0305 335.286 34.0305C336.649 34.0305 337.813 34.3309 338.871 34.9278C339.926 35.5247 340.756 36.3618 341.353 37.4355C341.95 38.5092 342.25 39.6805 342.25 40.9418C342.25 42.2745 341.95 43.4571 341.353 44.5007Z" fill="#4C4C4C"></path><path d="M290.186 17.752H283.173V24.7646H290.186V17.752Z" fill="#4C4C4C"></path></svg>