<svg xmlns="http://www.w3.org/2000/svg" width="241" height="52" viewBox="0 0 241 52" fill="none"><path d="M232.406 36.2412C232.366 36.8031 232.486 37.3248 232.687 37.8466C232.888 38.3683 233.209 38.8098 233.611 39.2111C234.454 39.9336 235.578 40.3349 236.703 40.3349C237.827 40.3349 238.912 39.9336 239.795 39.2111C240.558 38.4085 241 37.365 241 36.2412C241 35.1174 240.558 34.074 239.795 33.2713C238.952 32.5489 237.827 32.1475 236.703 32.1475C235.578 32.1475 234.494 32.5489 233.611 33.2713C233.209 33.6726 232.888 34.1141 232.687 34.6358C232.486 35.1576 232.406 35.6793 232.406 36.2412ZM209.715 51.2514H216.061L230.599 12.843H224.454C223.37 15.9734 222.326 18.8631 221.322 21.5119L220.077 24.9234C219.675 26.0471 219.273 27.1307 218.952 28.1341C218.591 29.1375 218.31 30.0204 218.029 30.8231C217.747 31.6258 217.587 32.2278 217.466 32.589H217.265C217.105 32.2278 216.904 31.6258 216.663 30.8231C216.382 30.0204 216.101 29.1375 215.739 28.1341C215.378 27.1307 214.976 26.0873 214.575 24.9234L213.33 21.5119C212.326 18.8631 211.282 15.9734 210.197 12.843H203.571L214.173 39.8934L209.715 51.2514ZM185.66 40.5757C188.149 40.6961 189.957 40.9369 191.041 41.2981C191.523 41.4185 191.965 41.7396 192.246 42.1409C192.527 42.5423 192.688 43.064 192.647 43.5858C192.688 44.2681 192.447 44.9102 192.045 45.432C191.603 45.9938 191.041 46.4353 190.398 46.7162C189.595 47.0774 188.752 47.3183 187.909 47.4387C186.864 47.5992 185.86 47.6795 184.816 47.6795C182.607 47.6795 180.84 47.3985 179.515 46.7965C178.19 46.1945 177.507 45.2313 177.507 43.8266C177.507 43.0239 177.668 42.2613 178.029 41.5389C178.35 40.8165 178.953 40.2145 179.676 39.9336C180.479 40.0941 181.322 40.2546 182.166 40.2948C183.129 40.375 184.294 40.4553 185.66 40.5757ZM179.676 21.9936C179.676 20.1875 180.198 18.7828 181.202 17.8597C182.206 16.9366 183.531 16.4149 184.937 16.455C186.342 16.4149 187.708 16.8965 188.712 17.8597C189.716 18.7828 190.238 20.1875 190.238 21.9936C190.238 23.7996 189.756 25.1642 188.712 26.007C187.668 26.8899 186.302 27.3715 184.937 27.3314C183.571 27.3715 182.246 26.8899 181.202 26.007C180.158 25.124 179.676 23.7996 179.676 21.9936ZM198.631 16.4149L199.836 12.2008C199.354 12.0001 198.872 11.8396 198.35 11.7593C197.748 11.6389 197.105 11.5988 196.463 11.5988C195.378 11.5587 194.294 11.7593 193.25 12.1607C192.366 12.5219 191.563 13.0035 190.84 13.6055C189.957 13.2042 188.993 12.843 188.029 12.6021C186.905 12.3212 185.78 12.1607 184.615 12.1607C183.21 12.1607 181.764 12.3613 180.439 12.8028C179.113 13.2042 177.909 13.8864 176.824 14.7293C175.74 15.5721 174.897 16.6557 174.254 17.8597C173.571 19.1842 173.25 20.6691 173.29 22.114C173.25 23.5187 173.571 24.8832 174.174 26.1274C174.736 27.2511 175.539 28.2545 176.543 29.017C175.419 29.4585 174.455 30.1809 173.732 31.1442C173.089 31.987 172.728 32.9903 172.728 34.0338C172.728 34.9168 172.969 35.7596 173.411 36.5221C173.933 37.4051 174.696 38.0874 175.62 38.5289C174.495 39.0105 173.531 39.8132 172.849 40.8165C172.126 41.9001 171.724 43.1844 171.724 44.5089C171.684 45.7129 172.045 46.8768 172.728 47.8801C173.411 48.8433 174.334 49.646 175.419 50.2079C176.664 50.8902 178.029 51.3317 179.435 51.5725C182.929 52.1745 186.503 52.1344 189.997 51.4922C191.563 51.2113 193.049 50.6494 194.455 49.8868C195.659 49.2046 196.704 48.2413 197.467 47.0774C198.23 45.8333 198.631 44.4286 198.591 42.9838C198.591 41.5389 198.31 40.375 197.708 39.4519C197.105 38.5289 196.262 37.7663 195.258 37.2847C194.093 36.7228 192.888 36.3215 191.603 36.0807C190.117 35.7997 188.631 35.5991 187.145 35.5188C185.74 35.3984 184.495 35.3181 183.411 35.2378C182.487 35.1977 181.603 35.0773 180.72 34.9168C180.158 34.8365 179.595 34.6358 179.073 34.3148C178.913 34.1944 178.752 33.9937 178.672 33.793C178.591 33.5924 178.551 33.3917 178.551 33.1509C178.551 32.3883 178.832 31.8666 179.395 31.5455C179.836 31.2646 180.318 31.104 180.84 31.104C181.362 31.104 181.844 31.1843 182.366 31.3448C183.21 31.5054 184.093 31.5856 184.977 31.5856C186.463 31.5856 187.909 31.385 189.314 30.9836C190.639 30.5823 191.884 29.9401 193.009 29.0973C194.053 28.2946 194.937 27.2511 195.579 26.0872C196.262 24.8431 196.583 23.3982 196.543 21.9936C196.543 20.9501 196.382 19.9066 196.021 18.9032C195.7 17.9801 195.218 17.1373 194.535 16.4149C194.776 16.2142 195.057 16.0136 195.378 15.9333C195.78 15.8129 196.222 15.7326 196.663 15.7326C197.025 15.7326 197.386 15.7728 197.708 15.8932C198.029 15.9734 198.35 16.134 198.631 16.4149ZM153.773 35.6793C152.728 35.7195 151.644 35.4385 150.72 34.9569C149.877 34.4753 149.154 33.793 148.592 32.9502C147.99 32.0673 147.548 31.0639 147.307 30.0204C146.745 27.6525 146.745 25.1642 147.307 22.7962C147.548 21.7527 147.99 20.7494 148.592 19.8664C149.154 19.0638 149.877 18.3815 150.72 17.8597C151.644 17.338 152.688 17.0972 153.773 17.1373C154.857 17.0972 155.901 17.3781 156.865 17.8597C157.748 18.3413 158.471 19.0236 159.033 19.8664C159.636 20.7494 160.078 21.7527 160.319 22.7962C160.881 25.1642 160.881 27.6525 160.319 30.0204C160.078 31.0639 159.636 32.0673 159.033 32.9502C158.471 33.793 157.748 34.4753 156.865 34.9569C155.941 35.4385 154.857 35.6793 153.773 35.6793ZM153.773 12.1205C151.845 12.0804 149.917 12.4416 148.11 13.164C146.504 13.8062 145.058 14.8095 143.853 16.0537C142.648 17.338 141.765 18.9032 141.162 20.5487C139.917 24.3213 139.917 28.415 141.162 32.1877C141.725 33.8733 142.648 35.3984 143.853 36.6827C145.018 37.967 146.504 38.9302 148.11 39.5724C151.765 40.9369 155.74 40.9369 159.395 39.5724C161.001 38.9302 162.487 37.9268 163.652 36.6827C164.857 35.3984 165.78 33.8733 166.343 32.1877C167.588 28.415 167.588 24.3213 166.343 20.5487C165.78 18.8631 164.857 17.338 163.652 16.0537C162.447 14.7694 161.001 13.8062 159.355 13.164C157.628 12.4416 155.7 12.1205 153.773 12.1205ZM126.906 39.8934H133.411V0H126.906V39.8934ZM106.384 35.6793C105.299 35.7195 104.255 35.4385 103.332 34.9569C102.488 34.4753 101.765 33.793 101.203 32.9502C100.601 32.0673 100.159 31.0639 99.918 30.0204C99.3558 27.6525 99.3558 25.1642 99.918 22.7962C100.159 21.7527 100.601 20.7494 101.203 19.8664C101.765 19.0638 102.488 18.3815 103.332 17.8597C104.255 17.338 105.299 17.0972 106.384 17.1373C107.468 17.0972 108.512 17.3781 109.476 17.8597C110.36 18.3413 111.082 19.0236 111.645 19.8664C112.247 20.7494 112.689 21.7527 112.93 22.7962C113.492 25.1642 113.492 27.6525 112.93 30.0204C112.689 31.0639 112.247 32.0673 111.645 32.9502C111.082 33.793 110.36 34.4753 109.476 34.9569C108.512 35.4385 107.468 35.6793 106.384 35.6793ZM106.384 12.1205C104.456 12.0804 102.528 12.4416 100.761 13.164C99.155 13.8062 97.7092 14.8095 96.5044 16.0537C95.2996 17.338 94.4161 18.9032 93.8137 20.5487C92.5687 24.3213 92.5687 28.415 93.8137 32.1877C94.3759 33.8733 95.2996 35.3984 96.5044 36.6827C97.6691 37.967 99.155 38.9302 100.761 39.5724C104.416 40.9369 108.392 40.9369 112.046 39.5724C113.653 38.9302 115.139 37.9268 116.303 36.6827C117.508 35.3984 118.432 33.8332 118.994 32.1877C120.239 28.415 120.239 24.3213 118.994 20.5487C118.432 18.8631 117.508 17.338 116.303 16.0537C115.098 14.7694 113.653 13.8062 112.046 13.164C110.279 12.4416 108.352 12.1205 106.384 12.1205ZM66.786 27.6926V25.0839C66.7459 23.8397 66.9868 22.6357 67.4688 21.5119C67.8704 20.5889 68.4326 19.7862 69.1956 19.1039C69.8784 18.5019 70.6414 18.0203 71.4848 17.7393C72.288 17.4584 73.1313 17.338 73.9747 17.2979C74.9787 17.2979 75.9827 17.5387 76.8662 17.9801C77.7497 18.4617 78.4726 19.1039 79.075 19.8664C79.7175 20.7494 80.1995 21.7126 80.4806 22.7561C81.1231 25.124 81.1231 27.6525 80.4806 30.0204C80.1995 31.0639 79.7175 32.0271 79.075 32.9101C78.5127 33.7128 77.7497 34.3549 76.8662 34.8365C75.9827 35.3181 74.9787 35.5188 73.9747 35.5188C73.1313 35.5188 72.288 35.3583 71.4848 35.0773C70.6414 34.7964 69.8382 34.3148 69.1956 33.7128C68.4728 33.0305 67.8704 32.1877 67.4688 31.3047C66.9868 30.1408 66.7459 28.9368 66.786 27.6926ZM75.3401 40.6158C77.0268 40.6158 78.6734 40.2948 80.1995 39.6125C81.6854 38.9703 82.9705 37.967 84.0548 36.763C85.1793 35.4385 86.0628 33.9134 86.6251 32.3081C87.87 28.4552 87.87 24.3213 86.6251 20.4685C86.0628 18.823 85.1793 17.2978 84.0548 16.0136C83.0107 14.8095 81.6854 13.8463 80.1995 13.164C78.6734 12.4817 77.0268 12.1607 75.3401 12.1607C73.1715 12.1607 71.3643 12.6021 69.8784 13.5252C68.5129 14.3279 67.3483 15.4918 66.5451 16.8965V12.9232H60.3203V51.3317H66.8262V36.5623C67.6696 37.7262 68.7539 38.6894 69.9988 39.4118C71.3643 40.2145 73.1313 40.6158 75.3401 40.6158ZM34.0958 51.2514H40.4411L54.979 12.843H48.8345C47.7502 15.9734 46.7061 18.8631 45.7021 21.5119L44.4571 24.9234C44.0555 26.0471 43.6539 27.1307 43.3326 28.1341C42.9712 29.1375 42.6901 30.0204 42.4089 30.8231C42.1278 31.6258 41.9672 32.2278 41.8467 32.589H41.7262C41.5656 32.2278 41.3648 31.6258 41.1238 30.8231C40.8427 30.0204 40.5616 29.1375 40.2001 28.1341C39.8387 27.1307 39.4371 26.0873 39.0355 24.9234L37.7905 21.5119C36.7865 18.8631 35.7424 15.9734 34.6179 12.843H27.9513L38.5536 39.9336L34.0958 51.2514ZM0 0V5.53852H11.6866V39.8934H18.4334V5.53852H30.12V0H0Z" fill="#4C4C4C"></path></svg>