<svg xmlns="http://www.w3.org/2000/svg" width="220" height="50" viewBox="0 0 220 50" fill="none"><g clip-path="url(#clip0_278_6274)"><path d="M122.4 0.7H135.9L129.1 49.3H115.6L122.4 0.7ZM105.3 0.7L96.2 28.7L92.2 0.7H82.7L70.7 28.6L69.3 0.8H56.1L60.7 49.4H71.6L85 18.6L89.7 49.3H100.4L118.1 0.7H105.3ZM219 29H186.9C187.1 35.3 190.8 39.5 196.4 39.5C200.6 39.5 203.9 37.3 206.5 33L217.4 37.9C213.5 45.2 205.7 50 196 50C182.8 50 174 41.1 174 26.8C174 11.1 184.3 0 198.9 0C211.7 0 219.7 8.6 219.7 22.1C219.7 24.3 219.5 26.6 219 29ZM206.9 19.7C206.9 14.1 203.7 10.5 198.7 10.5C193.5 10.5 189.1 14.2 188 19.7H206.9ZM13.8 15.4L0 31.5H24.7L27.5 23.9H16.9L23.4 16.4V16.2L19.2 9H38.1L23.4 49.3H33.4L51.1 0.7H5.4L13.8 15.4ZM157.9 10.5C162.7 10.5 166.9 13.1 170.5 17.5L172.4 3.8C169 1.5 164.4 0.1 158.3 0.1C146.2 0.1 139.4 7.2 139.4 16.2C139.4 22.4 142.9 26.3 148.6 28.7L151.3 29.9C156.4 32.1 157.8 33.2 157.8 35.5C157.8 37.9 155.5 39.4 152 39.4C146.2 39.4 141.5 36.5 138 31.4L136 45.4C140 48.5 145.2 50.1 152 50.1C163.5 50.1 170.6 43.5 170.6 34.2C170.6 27.9 167.8 23.9 160.8 20.7L157.8 19.3C153.6 17.5 152.2 16.4 152.2 14.4C152.3 12.2 154.2 10.5 157.9 10.5Z" fill="#4C4C4C"></path></g><defs><clipPath id="clip0_278_6274"><rect width="219.7" height="50" fill="white"></rect></clipPath></defs></svg>